<?xml version="1.0" encoding="utf-8"?>
<!-- Generator: Adobe Illustrator 22.1.0, SVG Export Plug-In . SVG Version: 6.00 Build 0)  -->
<svg version="1.1" id="Layer_1" xmlns="http://www.w3.org/2000/svg" xmlns:xlink="http://www.w3.org/1999/xlink" x="0px" y="0px"
	 viewBox="0 0 80 81" style="enable-background:new 0 0 80 81;" xml:space="preserve">
<style type="text/css">
	.st0{fill:#000000;}
</style>
<g>
	<g>
		<path class="st0" d="M3,35.1l0.4-0.8c0.4,0.2,0.7,0.5,1,0.8c0.2,0.3,0.2,0.7,0.1,1.2c-0.1,0.6-0.4,1-0.8,1.3
			c-0.4,0.3-1,0.4-1.7,0.3c-0.7-0.1-1.2-0.4-1.6-0.8c-0.3-0.4-0.5-1-0.4-1.6c0.1-0.5,0.3-1,0.7-1.2C1,34.1,1.3,34,1.6,34l0.1,0.9
			c-0.2,0-0.4,0.1-0.6,0.2c-0.1,0.1-0.2,0.4-0.3,0.6c0,0.3,0,0.6,0.2,0.8c0.2,0.2,0.5,0.4,1.1,0.5c0.5,0.1,0.9,0,1.2-0.1
			s0.4-0.4,0.5-0.7c0-0.2,0-0.4-0.1-0.6C3.5,35.3,3.3,35.2,3,35.1z"/>
		<path class="st0" d="M4.3,25.6c0.2,0,0.5,0.1,0.7,0.2c0.7,0.2,1.1,0.6,1.3,1.1c0.2,0.5,0.2,1.1,0.1,1.6c-0.2,0.6-0.6,1-1.1,1.3
			C5,29.9,4.6,30,4.3,29.9V29c0.3,0,0.5,0,0.7-0.1c0.3-0.1,0.6-0.3,0.7-0.7c0.1-0.4,0.1-0.6-0.1-1c-0.1-0.3-0.5-0.6-1-0.7
			c-0.1,0-0.3-0.1-0.4-0.1L4.3,25.6L4.3,25.6z M3.7,29.8c0.2,0.1,0.5,0.1,0.7,0.1V29c-0.1,0-0.2-0.1-0.4-0.1
			c-0.5-0.2-0.8-0.4-0.9-0.7c-0.2-0.3-0.2-0.6-0.1-1c0.1-0.3,0.3-0.6,0.6-0.7c0.2-0.1,0.5-0.1,0.8,0v-0.9c-0.4,0-0.7,0-1.1,0.1
			C2.8,26,2.4,26.4,2.2,27c-0.1,0.4-0.1,0.7-0.1,1c0,0.2,0.1,0.4,0.1,0.7c0.1,0.2,0.2,0.4,0.4,0.6C2.9,29.5,3.2,29.6,3.7,29.8z"/>
		<polygon class="st0" points="8.9,22.8 5.4,20.4 5.8,19.7 8.8,21.7 10,19.9 10.6,20.3 		"/>
		<polygon class="st0" points="13.1,17.1 10,14.1 12.3,11.8 12.7,12.3 11.1,14 11.8,14.7 13.3,13.1 13.8,13.6 12.3,15.1 13.2,16 
			14.8,14.3 15.4,14.8 		"/>
		<path class="st0" d="M19.3,9.6L18.9,9l1.6-1.1l1,1.4c0,0.2-0.2,0.5-0.4,0.8c-0.2,0.3-0.5,0.6-0.7,0.8c-0.4,0.2-0.8,0.4-1.1,0.4
			c-0.4,0-0.8,0-1.1-0.2c-0.3-0.2-0.6-0.5-0.8-0.8c-0.2-0.4-0.4-0.7-0.5-1.2s0-0.8,0.2-1.1c0.1-0.3,0.4-0.5,0.7-0.8
			c0.4-0.3,0.8-0.5,1.2-0.5c0.4,0,0.7,0.1,1,0.5l-0.6,0.6c-0.2-0.1-0.4-0.2-0.6-0.2s-0.4,0-0.6,0.2c-0.3,0.2-0.5,0.5-0.5,0.8
			c-0.1,0.3,0,0.7,0.3,1.1c0.3,0.4,0.6,0.7,1,0.7c0.3,0.1,0.6,0,1-0.1c0.1-0.1,0.2-0.2,0.4-0.4c0.1-0.1,0.2-0.3,0.2-0.5l-0.3-0.4
			L19.3,9.6z"/>
		<polygon class="st0" points="25.5,8.1 23.8,4.1 24.6,3.7 26.3,7.7 		"/>
		<path class="st0" d="M31.7,1.4c0.4,0,0.8,0.1,1.1,0.3c0.5,0.3,0.8,0.8,0.9,1.5c0.1,0.7,0.1,1.2-0.2,1.7s-0.7,0.8-1.3,1
			c-0.2,0-0.3,0-0.5,0V5.2c0.1,0,0.2,0,0.3,0c0.4-0.1,0.6-0.3,0.8-0.6s0.2-0.7,0.1-1.2c-0.1-0.5-0.3-0.8-0.5-1
			c-0.2-0.1-0.4-0.2-0.6-0.2L31.7,1.4L31.7,1.4z M29.6,4.2c0.2,0.7,0.5,1.2,1,1.4C30.9,5.8,31.2,6,31.7,6V5.2
			c-0.2,0-0.4-0.1-0.6-0.2c-0.2-0.2-0.5-0.5-0.5-1c-0.1-0.5-0.1-0.9,0-1.2c0.2-0.3,0.4-0.5,0.8-0.5c0.1,0,0.2,0,0.3,0V1.4
			c-0.2,0-0.3,0-0.5,0c-0.4,0.1-0.6,0.2-0.8,0.4C30.2,2,30,2.1,29.8,2.4c-0.1,0.2-0.2,0.5-0.2,0.7C29.5,3.3,29.5,3.7,29.6,4.2z"/>
		<path class="st0" d="M41.7,0.7c0.3,0,0.5,0,0.7,0.1C42.6,0.9,42.9,1,43,1.2s0.3,0.5,0.4,0.7c0.1,0.2,0.1,0.6,0.1,1
			c0,0.4,0,0.7-0.2,1c-0.1,0.3-0.2,0.6-0.5,0.7c-0.1,0.1-0.4,0.2-0.6,0.3c-0.1,0-0.3,0-0.5,0.1V4.3c0.1,0,0.1,0,0.2,0
			c0.1,0,0.2-0.1,0.3-0.1c0.1-0.1,0.2-0.2,0.2-0.4c0.1-0.2,0.1-0.5,0.1-0.8c0-0.4,0-0.6,0-0.8c0-0.2-0.1-0.3-0.2-0.4
			c-0.1-0.1-0.2-0.2-0.4-0.2c0,0-0.1,0-0.3,0V0.7L41.7,0.7z M40,0.6L39.8,5l1.7,0c0.1,0,0.1,0,0.2,0V4.3c-0.1,0-0.2,0-0.3,0l-0.7,0
			l0.1-2.9l0.4,0c0.1,0,0.3,0,0.4,0V0.7c0,0,0,0-0.1,0L40,0.6z"/>
		<polygon class="st0" points="47.5,5.8 48.5,1.6 51.6,2.3 51.4,3 49.2,2.5 49,3.5 51,3.9 50.9,4.7 48.8,4.1 48.5,5.3 50.9,5.8 
			50.7,6.6 		"/>
		<path class="st0" d="M59.2,8.9l0.6,0.7c-0.4,0.4-0.7,0.5-1.1,0.6c-0.4,0-0.8,0-1.2-0.3c-0.5-0.3-0.8-0.7-0.9-1.2
			c-0.1-0.5,0-1.1,0.4-1.7c0.3-0.6,0.8-1,1.3-1.2c0.5-0.1,1.1-0.1,1.6,0.2c0.4,0.2,0.7,0.6,0.8,1.1c0,0.3,0,0.6,0,1l-0.8-0.2
			c0-0.2,0-0.4,0-0.6c-0.1-0.2-0.2-0.4-0.4-0.5c-0.2-0.1-0.5-0.2-0.8-0.1C58.2,6.7,58,7,57.7,7.4c-0.3,0.5-0.4,0.8-0.4,1.2
			c0,0.3,0.2,0.5,0.5,0.7c0.2,0.1,0.4,0.1,0.6,0.1C58.8,9.3,59,9.1,59.2,8.9z"/>
		<polygon class="st0" points="62.5,13.1 65.3,9.9 65.9,10.5 63.1,13.7 		"/>
		<polygon class="st0" points="66.2,16.7 69.4,13.8 71.5,16.3 70.9,16.8 69.4,15 68.7,15.6 70.1,17.3 69.5,17.7 68.2,16.1 
			67.2,16.8 68.8,18.7 68.3,19.2 		"/>
		<polygon class="st0" points="70.7,22.5 74.5,20.6 74.9,21.4 73.1,24.3 75.7,23 76,23.7 72.2,25.6 71.8,24.9 73.5,22.1 71.1,23.3 
					"/>
		<path class="st0" d="M76,32l0,0.9c-0.5,0-0.8-0.1-1.1-0.3c-0.3-0.2-0.5-0.6-0.7-1C74,31,74.1,30.5,74.4,30c0.2-0.5,0.7-0.8,1.4-1
			c0.7-0.2,1.3-0.2,1.8,0.1c0.5,0.2,0.8,0.7,1,1.3c0.1,0.5,0.1,1-0.1,1.4c-0.1,0.2-0.4,0.5-0.6,0.6l-0.4-0.8
			c0.2-0.1,0.3-0.2,0.4-0.4c0.1-0.2,0.1-0.4,0-0.7c-0.1-0.3-0.2-0.5-0.5-0.6c-0.3-0.1-0.7-0.1-1.2,0c-0.5,0.1-0.9,0.4-1,0.6
			C75,30.8,74.9,31,75,31.4c0,0.2,0.2,0.4,0.4,0.5C75.5,32,75.7,32,76,32z"/>
		<polygon class="st0" points="75.3,37.4 79.6,37.1 79.6,38 75.3,38.3 		"/>
		<path class="st0" d="M77.7,43.2l1.9,0.9l-0.1,0.9l-1.8,0.6v-0.8l0.8-0.2l-0.8-0.4V43.2L77.7,43.2z M75.1,46.5l2.6-0.8v-0.8
			L76.9,45l0.1-1.2l0.7,0.3v-0.9l-2.3-1.1l0,1l1,0.4l-0.1,1.7l-1,0.3L75.1,46.5z"/>
		<path class="st0" d="M75.5,50.4l-0.2,0.8c-0.3,0-0.5,0-0.7,0.1c-0.2,0.1-0.3,0.3-0.4,0.6c-0.1,0.2-0.1,0.5,0,0.6
			c0.1,0.2,0.2,0.3,0.3,0.4s0.2,0,0.3,0c0.1,0,0.2-0.1,0.3-0.2c0-0.1,0.2-0.3,0.4-0.6c0.2-0.4,0.5-0.7,0.7-0.8
			c0.3-0.2,0.6-0.2,1-0.1c0.2,0,0.4,0.2,0.5,0.4c0.1,0.2,0.2,0.4,0.2,0.6c0,0.3,0,0.6-0.1,0.9c-0.2,0.5-0.4,0.8-0.8,1.1
			c-0.3,0.2-0.6,0.2-1,0.1l0.2-0.8c0.2,0,0.4,0,0.5,0c0.1-0.1,0.2-0.2,0.3-0.5c0.1-0.2,0.1-0.4,0-0.6c0-0.1-0.1-0.2-0.2-0.2
			c-0.1,0-0.2,0-0.3,0c-0.1,0.1-0.3,0.3-0.5,0.7c-0.2,0.4-0.4,0.6-0.6,0.8c-0.1,0.1-0.4,0.2-0.6,0.3c-0.2,0.1-0.5,0.1-0.7,0
			c-0.2-0.1-0.4-0.2-0.6-0.4c-0.1-0.2-0.2-0.4-0.3-0.7c0-0.2,0-0.6,0.2-1c0.2-0.5,0.4-0.8,0.7-1.1C74.6,50.4,75,50.4,75.5,50.4z"/>
		<polygon class="st0" points="69.9,59.6 71.4,60.6 74.3,60.6 73.8,61.5 71.8,61.4 72.7,63.2 72.1,64 70.9,61.3 69.4,60.3 		"/>
		<polygon class="st0" points="64.9,65.8 67.8,68.9 67.2,69.5 66,68.3 64.8,69.5 65.9,70.7 65.3,71.3 62.4,68.2 63,67.6 64.3,68.9 
			65.5,67.7 64.2,66.4 		"/>
		<path class="st0" d="M61,74.5l-0.7,0.4l-1.1-2c-0.2-0.3-0.3-0.5-0.4-0.6c-0.1-0.1-0.2-0.2-0.4-0.2c-0.2,0-0.4,0-0.6,0.1
			c-0.2,0.1-0.3,0.2-0.4,0.4c0,0.1-0.1,0.3,0,0.4c0,0.1,0.2,0.4,0.4,0.7l1.1,2L58,76.2l-1.1-2c-0.2-0.4-0.4-0.8-0.5-1
			c0-0.2-0.1-0.4,0-0.6c0-0.2,0.1-0.4,0.3-0.6c0.1-0.2,0.4-0.4,0.6-0.5c0.4-0.2,0.7-0.3,0.9-0.4c0.2,0,0.4,0,0.6,0.1
			c0.2,0,0.4,0.2,0.5,0.3c0.2,0.2,0.4,0.5,0.6,0.9L61,74.5z"/>
		<polygon class="st0" points="52,74.1 53.1,78.3 51.9,78.7 50.3,76 50.4,79.1 49.1,79.4 48,75.3 48.8,75 49.7,78.4 49.6,74.8 
			50.4,74.5 52.1,77.6 51.2,74.3 		"/>
		<path class="st0" d="M42.2,77l0.8,0l0.3-1l0.9-0.1l-1.3,4.5l-0.7,0.1v-1.3l0.1,0.3l0.5-1.7l-0.6,0L42.2,77L42.2,77z M39.9,76.3
			l2,4.2l0.2,0v-1.3l-0.6-1.3l0.6,0V77l-0.9,0.1l-0.5-1L39.9,76.3z"/>
		<polygon class="st0" points="36.1,76 35.5,80.4 34.7,80.3 33.4,77.1 33,80 32.2,79.9 32.7,75.6 33.6,75.7 34.9,78.7 35.3,75.9 		
			"/>
		<polygon class="st0" points="28.6,74.4 27.2,78.5 26.4,78.2 27.8,74.1 		"/>
		<path class="st0" d="M21.8,76.3l-0.3-0.2V75l1.3-2.3l-0.5-0.3c-0.2-0.1-0.4-0.2-0.5-0.2c-0.1,0-0.2,0-0.3,0v-0.8
			c0.1,0,0.2,0,0.3,0c0.2,0,0.4,0.1,0.7,0.3l1.4,0.8L21.8,76.3L21.8,76.3z M21.4,76.1V75l-0.1,0.2L21,75c-0.3-0.2-0.5-0.3-0.6-0.4
			c-0.1-0.1-0.2-0.2-0.2-0.4c-0.1-0.1-0.1-0.3,0-0.5c0.1-0.2,0.1-0.4,0.3-0.7c0.1-0.3,0.3-0.5,0.5-0.6c0.1-0.1,0.2-0.2,0.4-0.2
			c0,0,0,0,0.1,0v-0.8c-0.1,0-0.3,0-0.4,0c-0.3,0.1-0.6,0.2-0.8,0.5c-0.2,0.2-0.4,0.4-0.6,0.7c-0.2,0.4-0.3,0.7-0.4,1
			c-0.1,0.3-0.1,0.6,0,0.8c0,0.3,0.1,0.5,0.4,0.7c0.1,0.1,0.4,0.3,0.7,0.5L21.4,76.1z"/>
		<path class="st0" d="M14.7,66l0.4,0.4l-0.3,1l1.3,1.1L17,68l0.7,0.6l-3,1.7v-1l0.7-0.4l-0.7-0.6L14.7,66L14.7,66z M14.4,65.7
			L13,70.1l0.7,0.6l1.1-0.6v-1l-0.7,0.4l0.6-1.6l0.2,0.1v-2.3L14.4,65.7z"/>
		<path class="st0" d="M9.3,60.6c0.2,0,0.3,0,0.5,0c0.2,0,0.4,0.1,0.6,0.3c0.2,0.1,0.4,0.3,0.6,0.6l1,1.3l-2.6,1.9v-1.1l1.5-1.1
			L10.4,62c-0.1-0.2-0.2-0.4-0.3-0.4c-0.1-0.1-0.2-0.1-0.4-0.1c-0.1,0-0.2,0-0.4,0L9.3,60.6L9.3,60.6z M8.4,65.4l0.8-0.6v-1.1
			l-0.8,0.6l-0.2-0.3c-0.2-0.3-0.3-0.5-0.4-0.6c-0.1-0.1-0.1-0.3-0.1-0.4c0-0.1,0.1-0.3,0.2-0.5c0.1-0.1,0.3-0.3,0.6-0.5
			c0.2-0.2,0.5-0.4,0.7-0.4c0,0,0,0,0,0v-0.8c-0.1,0-0.3,0-0.4,0.1c-0.2,0.1-0.5,0.2-0.8,0.4c-0.3,0.2-0.6,0.5-0.7,0.7
			c-0.2,0.2-0.3,0.5-0.3,0.8c0,0.2,0,0.5,0.1,0.8c0.1,0.1,0.2,0.4,0.4,0.7L8.4,65.4z"/>
		<polygon class="st0" points="7.7,56.2 3.9,58 2.6,55.1 3.2,54.7 4.2,56.9 5,56.5 4.1,54.5 4.8,54.2 5.7,56.2 6.8,55.7 5.7,53.5 
			6.4,53.2 		"/>
		<path class="st0" d="M3.9,49.7l-0.3-0.8c0.2-0.1,0.5-0.3,0.5-0.5c0.1-0.2,0.1-0.4,0-0.7c0-0.2-0.1-0.5-0.3-0.6
			c-0.1-0.1-0.3-0.1-0.5-0.1c-0.1,0-0.2,0-0.2,0.1c0,0-0.1,0.1-0.1,0.3c0,0.1,0,0.4,0,0.7c0,0.5,0,0.8-0.2,1.1
			c-0.1,0.3-0.4,0.5-0.7,0.6c-0.2,0-0.4,0-0.6-0.1c-0.2,0-0.4-0.2-0.6-0.4S0.7,49,0.7,48.7c-0.1-0.5-0.1-1,0-1.2
			c0.1-0.4,0.4-0.6,0.8-0.7l0.2,0.8c-0.2,0.1-0.3,0.2-0.4,0.3c0,0.1,0,0.4,0,0.6s0.1,0.5,0.3,0.6s0.2,0.1,0.4,0.1
			c0.1,0,0.2-0.1,0.2-0.2c0-0.1,0.1-0.5,0.1-0.9s0-0.8,0.1-1c0-0.2,0.1-0.4,0.3-0.6c0.1-0.2,0.4-0.2,0.6-0.4c0.2,0,0.5,0,0.7,0.1
			c0.2,0,0.5,0.2,0.6,0.4c0.2,0.2,0.3,0.5,0.4,0.9c0.1,0.5,0.1,1-0.1,1.3C4.7,49.3,4.4,49.5,3.9,49.7z"/>
		<polygon class="st0" points="12.8,47.6 22.4,67 50.8,67 66.8,46.4 41.4,14.2 36.6,20.3 63.5,45.3 51.3,66.2 60.4,44.6 28.6,18 
			28.8,26.8 57.3,44.6 51.1,66 54.1,44.5 18.8,25.4 18.8,34.6 50.8,44.9 50.8,65.9 47.7,45.4 13.3,36.3 17.6,44.2 44.5,46.5 
			50.8,66.8 41.4,47.6 		"/>
	</g>
	<path class="st0" d="M77.2,74.4c0.5,0,0.9,0.1,1.4,0.4c0.4,0.2,0.8,0.6,1,1.1s0.4,0.9,0.4,1.4s-0.1,1-0.4,1.4
		c-0.2,0.5-0.6,0.8-1.1,1.1c-0.4,0.2-0.9,0.4-1.4,0.4s-1-0.1-1.4-0.4c-0.4-0.2-0.8-0.6-1-1.1c-0.2-0.4-0.4-0.9-0.4-1.4
		s0.1-1,0.4-1.4c0.2-0.5,0.6-0.8,1.1-1.1C76.3,74.5,76.8,74.4,77.2,74.4L77.2,74.4z M77.2,74.8c-0.4,0-0.8,0.1-1.1,0.3
		c-0.4,0.2-0.6,0.5-0.8,0.8c-0.2,0.4-0.3,0.8-0.3,1.2c0,0.4,0.1,0.8,0.3,1.2c0.2,0.4,0.5,0.7,0.8,0.8c0.4,0.2,0.7,0.3,1.1,0.3
		c0.4,0,0.8-0.1,1.1-0.3c0.4-0.2,0.7-0.5,0.8-0.8c0.2-0.4,0.3-0.8,0.3-1.2c0-0.4-0.1-0.8-0.3-1.2s-0.5-0.7-0.8-0.8
		C78,74.9,77.6,74.8,77.2,74.8L77.2,74.8z M76,78.7v-3H77c0.3,0,0.6,0,0.7,0.1c0.2,0,0.3,0.1,0.4,0.3c0.1,0.1,0.1,0.3,0.1,0.5
		c0,0.2-0.1,0.4-0.2,0.6c-0.2,0.2-0.4,0.3-0.6,0.3c0.1,0,0.2,0.1,0.2,0.2c0.1,0.1,0.3,0.3,0.4,0.6l0.4,0.6h-0.6l-0.3-0.5
		c-0.2-0.4-0.4-0.6-0.5-0.7c-0.1-0.1-0.2-0.1-0.4-0.1h-0.3v1.3L76,78.7L76,78.7z M76.5,77h0.6c0.3,0,0.5,0,0.6-0.1s0.1-0.2,0.1-0.4
		c0-0.1,0-0.1-0.1-0.2c0-0.1-0.1-0.1-0.2-0.1c-0.1,0-0.2,0-0.5,0h-0.6V77z"/>
</g>
</svg>
