<?xml version="1.0" encoding="UTF-8"?>
<svg id="Capa_1" data-name="Capa 1" xmlns="http://www.w3.org/2000/svg" viewBox="0 0 561 154.94">
  <defs>
    <style>
      .cls-1 {
        fill: #bbc447;
      }

      .cls-2 {
        fill: #eb844c;
      }

      .cls-3 {
        fill: #6e3f6a;
      }

      .cls-4 {
        fill: #40b8b3;
      }
    </style>
  </defs>
  <path class="cls-3" d="M138.11,107.66c0-26.85,18.85-47.13,43.99-47.13s21.99,4.71,29.28,12.71v-12.71h22.99v62.27c0,4.71,2.71,7.57,7.57,7.57h1.71v22.28h-6.57c-12.43,0-20.28-4.43-23.85-13-7.28,9.28-18.14,15.14-31.28,15.14-24.99,0-43.99-20.28-43.99-47.13h.14ZM211.37,107.66c0-14.14-10.57-24.85-24.85-24.85s-24.71,10.71-24.71,24.85,10.57,24.85,24.71,24.85,24.85-10.71,24.85-24.85Z"/>
  <path class="cls-3" d="M254.22,107.66c0-26.85,20.85-47.13,48.42-47.13s42.7,15.28,46.27,36.7h-24.42c-3-8.71-11.43-14.42-21.85-14.42s-24.71,10.71-24.71,24.85,10.57,24.85,24.71,24.85,18.85-5.86,21.85-14.42h24.42c-3.57,21.28-22.28,36.7-46.27,36.7s-48.42-20.28-48.42-47.13h0Z"/>
  <path class="cls-3" d="M359.48,107.66c0-26.85,20.85-47.13,48.42-47.13s42.7,15.28,46.27,36.7h-24.42c-3-8.71-11.43-14.42-21.85-14.42s-24.71,10.71-24.71,24.85,10.57,24.85,24.71,24.85,18.85-5.86,21.85-14.42h24.42c-3.57,21.28-22.28,36.7-46.27,36.7s-48.42-20.28-48.42-47.13h0Z"/>
  <path class="cls-3" d="M464.74,27.83h22.99v47.7c7-8.28,17-12.71,28.56-12.71,21.14,0,35.13,13.71,35.13,34.99v27.28c0,4.71,2.86,7.57,7.57,7.57h2v22.28h-6.57c-17.14,0-25.99-8.43-25.99-24.85v-24.85c0-12.14-7.71-20.14-19.57-20.14s-21.14,8.14-21.14,20.42v49.42h-22.99V27.83h0Z"/>
  <g>
    <path class="cls-3" d="M59.1,91.06v20.97h0v42.91H0V60.56h28.73c16.78,0,30.38,13.66,30.38,30.5h0Z"/>
    <path class="cls-4" d="M98.67,60.56h28.84c-2.05,31.33-24.29,51.37-59.29,51.38v-20.93c0-16.82,13.63-30.45,30.45-30.45Z"/>
    <path class="cls-2" d="M28.82,51.44H0V0h59.1v20.99c0,16.82-13.56,30.46-30.28,30.46h0Z"/>
    <path class="cls-1" d="M68.23,21V.02c35.24.08,57.46,19.93,59.31,51.42h-28.87c-16.82,0-30.45-13.63-30.45-30.45h0Z"/>
  </g>
</svg>